# xmcd
#
# Track frame offsets:
# 150
# 17117
# 30592
# 44372
# 58495
# 71650
# 85152
# 99445
# 111882
# 123710
# 138297
# 154312
# 171767
# 191905
# 207075
# 223570
# 242575
# 253810
# 268882
# 280712
#
# Disc length: 3994 seconds
#
#
# Revision: 0
# Processed by: cddbd v1.5.2PL0 Copyright (c) Steve Scherf et al.
# Submitted via: FreeRIP 2.945 
#
DISCID=300f9814
DTITLE=Orfeu and Menestrel - Orfeu and Menestrel - As Melhores de Orfeu and Menestrel
DYEAR=2003
DGENRE=Sertanejo
TTITLE0=Sozinho Na Noite
TTITLE1=Por Favor
TTITLE2=Súplica Sertaneja
TTITLE3=Minha Vingança
TTITLE4=Teu Carinho
TTITLE5=Festa De São João
TTITLE6=Rasgue A Passagem
TTITLE7=Igualdade De Condições
TTITLE8=Pranto De Um Homem
TTITLE9=Alma Boêmia
TTITLE10=Desespero De Amor
TTITLE11=O Preço Da Vida
TTITLE12=Qualquer Coisa
TTITLE13=Coração Vaidoso
TTITLE14=A Professora
TTITLE15=Mulher Dos Sonhos Meus
TTITLE16=Sempre Te Recordarei
TTITLE17=Super Feliz
TTITLE18=Mensagem De Amor
TTITLE19=Os Piados Da Perdiz
EXTD=Prfeu and Menestrel
EXTT0=
EXTT1=
EXTT2=
EXTT3=
EXTT4=
EXTT5=
EXTT6=
EXTT7=
EXTT8=
EXTT9=
EXTT10=
EXTT11=
EXTT12=
EXTT13=
EXTT14=
EXTT15=
EXTT16=
EXTT17=
EXTT18=
EXTT19=
PLAYORDER=
